<svg xmlns="http://www.w3.org/2000/svg" viewBox="0 0 244.64 66.98"><defs><style>.cls-1{fill:#fff;}.cls-2{fill:#f3456e;}</style></defs><title>dgroove</title><g id="Livello_2" data-name="Livello 2"><path class="cls-1" d="M83.87,52.72H80.25v-1.3H89v1.3H85.42V63.29H83.87Z"/><path class="cls-1" d="M89.56,59.31a2.73,2.73,0,0,0,2.92,3,5.61,5.61,0,0,0,2.36-.44l.26,1.11a6.9,6.9,0,0,1-2.84.53,4,4,0,0,1-4.19-4.3c0-2.57,1.52-4.6,4-4.6,2.79,0,3.53,2.45,3.53,4a5.87,5.87,0,0,1-.05.72Zm4.55-1.11A2.21,2.21,0,0,0,92,55.68a2.57,2.57,0,0,0-2.38,2.52Z"/><path class="cls-1" d="M103.24,63a5.71,5.71,0,0,1-2.45.49,4.05,4.05,0,0,1-4.25-4.35,4.33,4.33,0,0,1,4.58-4.53,5.2,5.2,0,0,1,2.15.44l-.35,1.2a3.6,3.6,0,0,0-1.8-.41,3.22,3.22,0,0,0-.05,6.42,4.4,4.4,0,0,0,1.9-.42Z"/><path class="cls-1" d="M104.68,57.07c0-.88,0-1.6-.07-2.31H106l.09,1.41h0a3.14,3.14,0,0,1,2.82-1.6c1.18,0,3,.71,3,3.63v5.09h-1.55V58.37c0-1.37-.51-2.52-2-2.52a2.2,2.2,0,0,0-2.08,1.59,2.23,2.23,0,0,0-.11.72v5.13h-1.55Z"/><path class="cls-1" d="M121.82,59a4.17,4.17,0,0,1-4.25,4.53,4.06,4.06,0,0,1-4.09-4.39,4.16,4.16,0,0,1,4.23-4.53C120.16,54.57,121.82,56.35,121.82,59ZM115,59c0,1.87,1.08,3.28,2.59,3.28s2.59-1.39,2.59-3.31c0-1.45-.72-3.28-2.56-3.28S115,57.42,115,59Z"/><path class="cls-1" d="M123.4,50.78H125V63.29H123.4Z"/><path class="cls-1" d="M134.91,59a4.17,4.17,0,0,1-4.25,4.53,4.06,4.06,0,0,1-4.09-4.39,4.16,4.16,0,0,1,4.23-4.53C133.26,54.57,134.91,56.35,134.91,59Zm-6.77.09c0,1.87,1.08,3.28,2.59,3.28s2.59-1.39,2.59-3.31c0-1.45-.72-3.28-2.56-3.28S128.15,57.42,128.15,59Z"/><path class="cls-1" d="M143.85,54.76c0,.62-.07,1.3-.07,2.34v5c0,2-.39,3.15-1.22,3.89a4.52,4.52,0,0,1-3.1,1,5.51,5.51,0,0,1-2.84-.71l.39-1.18a4.8,4.8,0,0,0,2.5.67c1.59,0,2.75-.83,2.75-3v-1h0a3,3,0,0,1-2.71,1.43c-2.12,0-3.63-1.8-3.63-4.16,0-2.89,1.89-4.53,3.84-4.53A2.84,2.84,0,0,1,142.39,56h0l.07-1.29Zm-1.6,3.37a2.16,2.16,0,0,0-.09-.71A2.23,2.23,0,0,0,140,55.78c-1.48,0-2.54,1.25-2.54,3.23,0,1.67.85,3.07,2.52,3.07a2.27,2.27,0,0,0,2.15-1.59,2.65,2.65,0,0,0,.13-.83Z"/><path class="cls-1" d="M147.61,52.36a1,1,0,0,1-1.92,0,1,1,0,0,1,1-1A.92.92,0,0,1,147.61,52.36Zm-1.73,10.93V54.76h1.55v8.53Z"/><path class="cls-1" d="M154.36,63.29l-.12-1.08h-.05a3.18,3.18,0,0,1-2.61,1.27A2.43,2.43,0,0,1,149,61c0-2.06,1.83-3.19,5.13-3.17v-.18a1.76,1.76,0,0,0-1.94-2,4.25,4.25,0,0,0-2.22.63l-.35-1a5.3,5.3,0,0,1,2.8-.76c2.61,0,3.24,1.78,3.24,3.49v3.19a11.82,11.82,0,0,0,.14,2Zm-.23-4.35c-1.69,0-3.61.26-3.61,1.92A1.37,1.37,0,0,0,152,62.34,2.12,2.12,0,0,0,154,60.91a1.63,1.63,0,0,0,.09-.49Z"/><path class="cls-1" d="M162,59.31a2.73,2.73,0,0,0,2.93,3,5.6,5.6,0,0,0,2.36-.44l.26,1.11a6.9,6.9,0,0,1-2.84.53,4,4,0,0,1-4.19-4.3c0-2.57,1.52-4.6,4-4.6,2.79,0,3.53,2.45,3.53,4a5.87,5.87,0,0,1-.05.72Zm4.55-1.11a2.21,2.21,0,0,0-2.15-2.52A2.57,2.57,0,0,0,162,58.2Z"/><path class="cls-1" d="M169.59,57.07c0-.88,0-1.6-.07-2.31h1.36l.07,1.37H171a2.94,2.94,0,0,1,2.68-1.57,2.52,2.52,0,0,1,2.41,1.71h0a3.52,3.52,0,0,1,1-1.11,2.92,2.92,0,0,1,1.89-.6c1.13,0,2.8.74,2.8,3.7v5h-1.52V58.46c0-1.64-.6-2.63-1.85-2.63a2,2,0,0,0-1.83,1.41,2.56,2.56,0,0,0-.12.78v5.27h-1.52V58.18c0-1.36-.6-2.34-1.78-2.34a2.12,2.12,0,0,0-1.92,1.55,2.14,2.14,0,0,0-.12.76v5.15h-1.52Z"/><path class="cls-1" d="M191.64,59a4.17,4.17,0,0,1-4.25,4.53,4.06,4.06,0,0,1-4.09-4.39,4.17,4.17,0,0,1,4.23-4.53C190,54.57,191.64,56.35,191.64,59Zm-6.77.09c0,1.87,1.08,3.28,2.59,3.28s2.59-1.39,2.59-3.31c0-1.45-.72-3.28-2.55-3.28S184.87,57.42,184.87,59Z"/><path class="cls-1" d="M192.13,62.39l3.86-5c.37-.46.72-.86,1.11-1.32v0h-4.62V54.76H199l0,1-3.81,5c-.35.48-.71.9-1.09,1.34v0h5v1.23h-6.93Z"/><path class="cls-1" d="M202,52.36a1,1,0,0,1-1.92,0,1,1,0,0,1,1-1A.92.92,0,0,1,202,52.36Zm-1.73,10.93V54.76h1.55v8.53Z"/><path class="cls-1" d="M211.75,59a4.17,4.17,0,0,1-4.25,4.53,4.06,4.06,0,0,1-4.09-4.39,4.17,4.17,0,0,1,4.23-4.53C210.09,54.57,211.75,56.35,211.75,59ZM205,59c0,1.87,1.08,3.28,2.59,3.28s2.59-1.39,2.59-3.31c0-1.45-.72-3.28-2.55-3.28S205,57.42,205,59Z"/><path class="cls-1" d="M213.34,57.07c0-.88,0-1.6-.07-2.31h1.38l.09,1.41h0a3.14,3.14,0,0,1,2.82-1.6c1.18,0,3,.71,3,3.63v5.09H219V58.37c0-1.37-.51-2.52-2-2.52A2.2,2.2,0,0,0,215,57.44a2.23,2.23,0,0,0-.11.72v5.13h-1.55Z"/><path class="cls-1" d="M227.47,63.29l-.12-1.08h-.05a3.18,3.18,0,0,1-2.61,1.27A2.43,2.43,0,0,1,222.08,61c0-2.06,1.83-3.19,5.13-3.17v-.18a1.76,1.76,0,0,0-1.94-2,4.25,4.25,0,0,0-2.22.63l-.35-1a5.3,5.3,0,0,1,2.8-.76c2.61,0,3.24,1.78,3.24,3.49v3.19a12,12,0,0,0,.14,2Zm-.23-4.35c-1.69,0-3.61.26-3.61,1.92a1.37,1.37,0,0,0,1.46,1.48,2.12,2.12,0,0,0,2.06-1.43,1.63,1.63,0,0,0,.09-.49Z"/><path class="cls-1" d="M230.88,50.78h1.55V63.29h-1.55Z"/><path class="cls-1" d="M235.53,59.31a2.73,2.73,0,0,0,2.93,3,5.6,5.6,0,0,0,2.36-.44l.26,1.11a6.89,6.89,0,0,1-2.84.53,4,4,0,0,1-4.2-4.3c0-2.57,1.52-4.6,4-4.6,2.79,0,3.53,2.45,3.53,4a5.87,5.87,0,0,1-.05.72Zm4.55-1.11a2.21,2.21,0,0,0-2.15-2.52,2.57,2.57,0,0,0-2.38,2.52Z"/><path class="cls-1" d="M242.55,62.38a1,1,0,0,1,1.06-1.11,1.11,1.11,0,0,1,0,2.22A1,1,0,0,1,242.55,62.38Z"/><path class="cls-1" d="M80.27,29.9c0-8.48,5.7-13.83,14.37-13.83h.95v6.51h-.81c-5.22,0-8.07,2.51-8.07,7.25V48.34H80.27Z"/><path class="cls-1" d="M185.29,48.34,173.42,16.48h6.92l8.41,23.19,8.75-23.19h6.92L192.2,48.34Z"/><path class="cls-2" d="M27.12,0V20a15.75,15.75,0,0,0-11-4.14A15.05,15.05,0,0,0,7,18.7l5.56,4.07A10.68,10.68,0,0,1,16.54,22c5.83,0,10.24,4.41,10.24,10.71,0,5.83-4.27,10-10.24,10S6.37,38.51,6.37,32.41c0,0,0-.09,0-.13L.57,28A16.79,16.79,0,0,0,16.81,49.16c6.31,0,11.46-2.64,14-6.92,2.17-3.73,2.85-8.68,2.85-15.32V0Z"/><path class="cls-1" d="M113.39,42.53a9.52,9.52,0,0,1-7.76-9.72c0-6.31,4.34-10.71,10.17-10.71A10,10,0,0,1,126,32.41a10.82,10.82,0,0,1-1.92,6.37l2.56,6.46c.36-.31.71-.62,1.05-1a16.86,16.86,0,0,0,0-23.73,16.78,16.78,0,0,0-23.8,0,16.86,16.86,0,0,0,0,23.73,16.56,16.56,0,0,0,11.87,4.95H116Z"/><path class="cls-1" d="M240.75,33.56c0-6.2-2-11-5.31-14.13l-3,6.05a12,12,0,0,1,1.33,3.94H214.64a10.39,10.39,0,0,1,7.1-7.93l2.92-5.9a16.82,16.82,0,0,0-12,28.67,16.56,16.56,0,0,0,11.87,4.95c4.41,0,8.2-1.63,11.93-4.95L232,39.8a10.34,10.34,0,0,1-7.46,3c-5.15,0-8.75-3-9.56-7.66h25.7C240.68,34.58,240.75,34.1,240.75,33.56Z"/><path class="cls-1" d="M69.63,22.65A14.69,14.69,0,0,0,62.9,17v8a9.71,9.71,0,0,1,2.8,7c0,6.31-4.41,10.78-10.24,10.78A10,10,0,0,1,45.29,32.41c0-4.67,2.39-8.23,6.25-9.64V16.1a16.8,16.8,0,0,0,3.92,33.12A13.86,13.86,0,0,0,65.76,45v2.1c0,7.46-3.86,11.66-10.64,11.66-4.61,0-8.07-1.76-11.66-5.49l-4.54,4.54A18.91,18.91,0,0,0,54.1,65c11.26,0,18.17-6.78,18.17-18.31V37.9C72.27,30.92,71.73,26,69.63,22.65Z"/><path class="cls-1" d="M155.77,22.29A9.52,9.52,0,0,1,163.53,32c0,6.31-4.34,10.71-10.17,10.71a10,10,0,0,1-10.24-10.31A10.82,10.82,0,0,1,145,26l-2.56-6.46c-.36.31-.71.62-1.05,1a16.86,16.86,0,0,0,0,23.73,16.78,16.78,0,0,0,23.8,0,16.86,16.86,0,0,0,0-23.73,16.56,16.56,0,0,0-11.87-4.95h-.24Z"/></g></svg>